<svg xmlns="http://www.w3.org/2000/svg" width="37.531" height="32.84" viewBox="0 0 37.531 32.84">
  <defs>
    <style>
      .cls-1 {
        fill: #fff;
        fill-rule: evenodd;
      }
    </style>
  </defs>
  <path id="Browser-Icon" class="cls-1" d="M776.326,1618.88h30.5a3.522,3.522,0,0,1,3.519,3.52v29.33H772.807V1622.4A3.522,3.522,0,0,1,776.326,1618.88Zm7.625,2.35a1.76,1.76,0,1,1-1.76,1.76A1.761,1.761,0,0,1,783.951,1621.23Zm-5.865,0a1.76,1.76,0,1,1-1.76,1.76A1.761,1.761,0,0,1,778.086,1621.23Zm11.73,0a1.76,1.76,0,1,1-1.759,1.76A1.761,1.761,0,0,1,789.816,1621.23ZM808,1627.09v22.29H775.153v-22.29H808Z" transform="translate(-772.813 -1618.88)"/>
</svg>
