<svg xmlns="http://www.w3.org/2000/svg" width="32.437" height="28.38" viewBox="0 0 32.437 28.38">
  <defs>
    <style>
      .cls-1 {
        fill: #fff;
        fill-rule: evenodd;
      }
    </style>
  </defs>
  <path id="Camera" class="cls-1" d="M778.513,1918.3H804.88a3.04,3.04,0,0,1,3.042,3.04v18.26a3.04,3.04,0,0,1-3.042,3.04H778.513a3.04,3.04,0,0,1-3.042-3.04v-18.26A3.04,3.04,0,0,1,778.513,1918.3Zm8.113-4.06h10.141a1.227,1.227,0,0,1,1.014,1.36v2.36a1.216,1.216,0,0,1-1.014,1.35H786.626a1.216,1.216,0,0,1-1.014-1.35v-2.36A1.227,1.227,0,0,1,786.626,1914.24Zm5.071,7.1a9.13,9.13,0,1,1-9.127,9.13A9.13,9.13,0,0,1,791.7,1921.34Zm0,3.04a6.085,6.085,0,1,1-6.085,6.09A6.089,6.089,0,0,1,791.7,1924.38Zm0,4.06a2.03,2.03,0,1,1-2.029,2.03A2.03,2.03,0,0,1,791.7,1928.44Zm-4.057-12.17h8.113v1.02H787.64v-1.02Z" transform="translate(-775.469 -1914.25)"/>
</svg>
