<svg xmlns="http://www.w3.org/2000/svg" width="37.469" height="37.5" viewBox="0 0 37.469 37.5">
  <defs>
    <style>
      .cls-1 {
        fill: #fff;
        fill-rule: evenodd;
      }
    </style>
  </defs>
  <path id="Star-Icon" class="cls-1" d="M323.091,1923.75a56.779,56.779,0,0,1-9.72,9.79c0-.02-0.015-0.05-0.015-0.05a0.309,0.309,0,0,1,0,.06s0.01-.01.016-0.01a72.377,72.377,0,0,1,2.693,13.64l-11.693-7.11a0.109,0.109,0,0,1-.019.01,0.086,0.086,0,0,1-.041-0.02,133.665,133.665,0,0,1-11.672,7.12,72.074,72.074,0,0,1,2.686-13.61,0.044,0.044,0,0,1,.016.01s0-.04,0-0.05a0.155,0.155,0,0,0-.011.04,56.342,56.342,0,0,1-9.713-9.82l12.883-1.17,5.857-12.88,5.856,12.88Z" transform="translate(-285.625 -1909.69)"/>
</svg>
