<svg xmlns="http://www.w3.org/2000/svg" width="270.625" height="195.69" viewBox="0 0 270.625 195.69">
  <defs>
    <style>
      .cls-1 {
        fill: #e0e0e0;
        fill-rule: evenodd;
      }
    </style>
  </defs>
  <path id="Users-Icon" class="cls-1" d="M374.789,1303.04a62.23,62.23,0,1,0-62.168-62.23A62.272,62.272,0,0,0,374.789,1303.04Zm0-102.92a40.69,40.69,0,1,1-40.648,40.69A40.712,40.712,0,0,1,374.789,1200.12Zm28.479,105.23a10.753,10.753,0,0,0-10.2,2.04l-18.276,15.48-18.271-15.48a10.765,10.765,0,0,0-10.206-2.04c-17.934,5.7-76.453,26.73-76.453,58.16a10.764,10.764,0,0,0,10.76,10.77H468.962a10.765,10.765,0,0,0,10.76-10.77C479.722,1332.08,421.2,1311.05,403.268,1305.35ZM298.8,1352.74c10.23-8.66,29.548-18.37,48.434-24.99l20.6,17.45a10.745,10.745,0,0,0,13.9,0l20.606-17.45c18.886,6.62,38.2,16.33,48.434,24.99H298.8Zm205.344-48.09a8.075,8.075,0,0,0-7.174,14.47c6.583,3.28,18.328,10.86,24.05,18.55H492.336a8.08,8.08,0,0,0,0,16.16h40.07a8.076,8.076,0,0,0,8.07-8.08C540.476,1323.31,507.865,1306.49,504.147,1304.65Zm-40-13.78a24.517,24.517,0,0,1-17.48-7.25,8.074,8.074,0,0,0-11.417,11.42,40.895,40.895,0,1,0,12.993-66.61,8.075,8.075,0,0,0,6.279,14.88A24.749,24.749,0,1,1,464.149,1290.87Z" transform="translate(-269.844 -1178.59)"/>
</svg>
