<svg xmlns="http://www.w3.org/2000/svg" width="32.437" height="28.38"><path d="M3.044 4.05h26.367a3.04 3.04 0 0 1 3.042 3.04v18.26a3.04 3.04 0 0 1-3.042 3.04H3.044a3.04 3.04 0 0 1-3.042-3.04V7.09a3.04 3.04 0 0 1 3.042-3.04zm8.113-4.06h10.141a1.227 1.227 0 0 1 1.014 1.36v2.36a1.216 1.216 0 0 1-1.014 1.35H11.157a1.216 1.216 0 0 1-1.014-1.35V1.35a1.227 1.227 0 0 1 1.014-1.36zm5.071 7.1a9.13 9.13 0 1 1-9.127 9.13 9.13 9.13 0 0 1 9.13-9.13zm0 3.04a6.085 6.085 0 1 1-6.085 6.09 6.089 6.089 0 0 1 6.088-6.09zm0 4.06a2.03 2.03 0 1 1-2.029 2.03 2.03 2.03 0 0 1 2.032-2.03zM12.171 2.02h8.113v1.02h-8.113V2.02z" fill="#fff" fill-rule="evenodd"/></svg>